<?xml version="1.0" encoding="UTF-8"?>
<svg xmlns="http://www.w3.org/2000/svg" xmlns:xlink="http://www.w3.org/1999/xlink" width="30px" height="30px" viewBox="0 0 30 30" version="1.1">
<g id="surface1">
<path style=" stroke:none;fill-rule:nonzero;fill:rgb(29.803922%,68.627451%,31.372549%);fill-opacity:1;" d="M 28.125 10.125 L 25 11.84375 L 21.875 14.8125 L 21.875 25 L 26.25 25 C 27.285156 25 28.125 24.160156 28.125 23.125 Z M 28.125 10.125 "/>
<path style=" stroke:none;fill-rule:nonzero;fill:rgb(11.764706%,53.333333%,89.803922%);fill-opacity:1;" d="M 1.875 10.125 L 4.132812 11.195312 L 8.125 14.8125 L 8.125 25 L 3.75 25 C 2.714844 25 1.875 24.160156 1.875 23.125 Z M 1.875 10.125 "/>
<path style=" stroke:none;fill-rule:nonzero;fill:rgb(89.803922%,22.352941%,20.784314%);fill-opacity:1;" d="M 21.875 7 L 15 12.15625 L 8.125 7 L 7.5 10.625 L 8.125 14.8125 L 15 19.96875 L 21.875 14.8125 L 22.5 10.625 Z M 21.875 7 "/>
<path style=" stroke:none;fill-rule:nonzero;fill:rgb(77.647059%,15.686275%,15.686275%);fill-opacity:1;" d="M 1.875 7.6875 L 1.875 10.125 L 8.125 14.8125 L 8.125 7 L 6.171875 5.535156 C 5.707031 5.1875 5.140625 5 4.5625 5 C 3.078125 5 1.875 6.203125 1.875 7.6875 Z M 1.875 7.6875 "/>
<path style=" stroke:none;fill-rule:nonzero;fill:rgb(98.431373%,75.294118%,17.647059%);fill-opacity:1;" d="M 28.125 7.6875 L 28.125 10.125 L 21.875 14.8125 L 21.875 7 L 23.828125 5.535156 C 24.292969 5.1875 24.859375 5 25.4375 5 C 26.921875 5 28.125 6.203125 28.125 7.6875 Z M 28.125 7.6875 "/>
</g>
</svg>
